<?xml version="1.0" encoding="UTF-8" standalone="no"?>
<!-- Created with Inkscape (http://www.inkscape.org/) -->

<svg
   xmlns:dc="http://purl.org/dc/elements/1.1/"
   xmlns:cc="http://creativecommons.org/ns#"
   xmlns:rdf="http://www.w3.org/1999/02/22-rdf-syntax-ns#"
   xmlns:svg="http://www.w3.org/2000/svg"
   xmlns="http://www.w3.org/2000/svg"
   xmlns:sodipodi="http://sodipodi.sourceforge.net/DTD/sodipodi-0.dtd"
   xmlns:inkscape="http://www.inkscape.org/namespaces/inkscape"
   width="500"
   height="144.05222"
   id="svg4111"
   version="1.1"
   inkscape:version="0.48.5 r10040"
   sodipodi:docname="New document 4">
  <defs
     id="defs4113" />
  <sodipodi:namedview
     id="base"
     pagecolor="#ffffff"
     bordercolor="#666666"
     borderopacity="1.0"
     inkscape:pageopacity="0.0"
     inkscape:pageshadow="2"
     inkscape:zoom="0.7"
     inkscape:cx="114.66809"
     inkscape:cy="48.080586"
     inkscape:document-units="px"
     inkscape:current-layer="layer1"
     showgrid="false"
     fit-margin-top="0"
     fit-margin-left="0"
     fit-margin-right="0"
     fit-margin-bottom="0"
     inkscape:window-width="1920"
     inkscape:window-height="1028"
     inkscape:window-x="-8"
     inkscape:window-y="-8"
     inkscape:window-maximized="1" />
  <metadata
     id="metadata4116">
    <rdf:RDF>
      <cc:Work
         rdf:about="">
        <dc:format>image/svg+xml</dc:format>
        <dc:type
           rdf:resource="http://purl.org/dc/dcmitype/StillImage" />
        <dc:title></dc:title>
      </cc:Work>
    </rdf:RDF>
  </metadata>
  <g
     inkscape:label="Layer 1"
     inkscape:groupmode="layer"
     id="layer1"
     transform="translate(-306.08196,-839.29274)">
    <g
       id="g3507"
       transform="matrix(11.080087,0,0,-11.080087,456.89302,840.66667)">
      <path
         d="m 0,0 0,-2.289 1.968,0 0,-10.464 2.552,0 0,10.464 1.968,0 0,2.289"
         style="fill:#ed1c24;fill-opacity:1;fill-rule:nonzero;stroke:none"
         id="path3509"
         inkscape:connector-curvature="0" />
    </g>
    <g
       id="g3511"
       transform="matrix(11.080087,0,0,-11.080087,583.50517,956.60861)">
      <path
         d="m 0,0 0,10.464 -2.552,0 0,-12.753 5.307,0 0,2.289"
         style="fill:#0f68b3;fill-opacity:1;fill-rule:nonzero;stroke:none"
         id="path3513"
         inkscape:connector-curvature="0" />
    </g>
    <g
       id="g3515"
       transform="matrix(11.080087,0,0,-11.080087,680.33405,840.66667)">
      <path
         d="m 0,0 0,-9.769 c 0,-0.643 -0.229,-0.892 -0.727,-0.892 -0.511,0 -0.745,0.249 -0.745,0.892 l 0,9.769 -2.551,0 0,-9.624 c 0,-2.081 1.204,-3.228 3.296,-3.228 2.081,0 3.279,1.147 3.279,3.228 l 0,9.624"
         style="fill:#0f68b3;fill-opacity:1;fill-rule:nonzero;stroke:none"
         id="path3517"
         inkscape:connector-curvature="0" />
    </g>
    <g
       id="g3519"
       transform="matrix(11.080087,0,0,-11.080087,782.7473,901.46311)">
      <path
         d="m 0,0 c -1.481,1.545 -1.727,1.919 -1.727,2.555 0,0.689 0.424,0.84 0.696,0.84 0.241,0 0.592,-0.142 0.592,-0.753 l 0,-0.809 2.414,0 0,1.106 c 0,0.87 -0.191,1.489 -0.619,1.892 L 1.352,4.835 c -0.546,0.501 -1.453,0.776 -2.343,0.776 -2.087,0 -3.249,-1.112 -3.249,-3.253 0,-1.74 0.993,-2.768 2.157,-3.932 1.62,-1.605 1.775,-1.835 1.775,-2.694 0,-0.791 -0.401,-0.906 -0.807,-0.906 -0.243,0 -0.625,0.163 -0.625,0.927 l 0,0.933 -2.513,0 0,-1.453 c 0,-0.845 0.306,-1.579 0.883,-2.024 0.516,-0.398 1.344,-0.599 2.231,-0.599 1.08,0 2.009,0.311 2.532,0.925 0.48,0.563 0.713,1.391 0.713,2.476 C 2.106,-2.428 1.688,-1.757 0,0"
         style="fill:#0f68b3;fill-opacity:1;fill-rule:nonzero;stroke:none"
         id="path3521"
         inkscape:connector-curvature="0" />
    </g>
    <g
       id="g3523"
       transform="matrix(11.080087,0,0,-11.080087,398.02452,840.66667)">
      <path
         d="m 0,0 -8.298,-12.753 3.076,0 5.555,8.686 0,-8.686 2.603,0 0,12.753 -0.002,0"
         style="fill:#0f68b3;fill-opacity:1;fill-rule:nonzero;stroke:none"
         id="path3525"
         inkscape:connector-curvature="0" />
    </g>
  </g>
</svg>
